<?xml version="1.0" encoding="UTF-8"?>
<!-- Generator: Adobe Illustrator 24.1.1, SVG Export Plug-In . SVG Version: 6.00 Build 0)  -->
<svg xmlns="http://www.w3.org/2000/svg" xmlns:xlink="http://www.w3.org/1999/xlink" version="1.1" id="Layer_1" x="0px" y="0px" viewBox="0 0 446.5 115.2" style="enable-background:new 0 0 446.5 115.2;" xml:space="preserve">
<style type="text/css">
	.st0{fill:#FFFFFF;}
</style>
<g>
	<g>
		<g>
			<g>
				<g>
					<g>
						<g>
							<path class="st0" d="M66.5,84.4c-0.2,0-0.4,0-0.6-0.1l-55.5-9.8c-2-0.4-3.3-2.2-3-4.2c0.4-2,2.2-3.3,4.2-3l55.5,9.8         c2,0.4,3.3,2.2,3,4.2C69.8,83.1,68.3,84.4,66.5,84.4L66.5,84.4z"></path>
						</g>
					</g>
					<g>
						<path class="st0" d="M67.1,70.8c-2,0-3.7-1.6-3.7-3.7V17.1L28.2,39.8v21.3c0,2-1.6,3.7-3.7,3.7c-2,0-3.7-1.6-3.7-3.7V37.8        c0-1.2,0.6-2.4,1.7-3.1L65.2,7.3c1.1-0.7,2.6-0.8,3.7-0.1c1.2,0.6,1.9,1.9,1.9,3.2v56.8C70.8,69.2,69.1,70.8,67.1,70.8        L67.1,70.8z"></path>
					</g>
					<path class="st0" d="M81.1,111.4c0.2,0,0.4,0,0.6-0.1l66-22.3c2-0.4,3.3-2.2,3-4.2c-0.4-2-2.2-3.3-4.2-3l-66,22.3       c-2,0.4-3.3,2.2-3,4.2C77.8,110.1,79.3,111.4,81.1,111.4L81.1,111.4z"></path>
					<g>
						<g>
							<path class="st0" d="M81.6,84.5c-2,0-3.7-1.6-3.7-3.7V10.4c0-1.3,0.7-2.6,1.9-3.2c1.2-0.6,2.6-0.6,3.7,0.1l42.6,27.4         c1,0.7,1.7,1.8,1.7,3.1V68c0,2-1.6,3.7-3.7,3.7c-2,0-3.7-1.6-3.7-3.7V39.8L85.3,17.1v63.8C85.3,82.9,83.7,84.5,81.6,84.5         L81.6,84.5z"></path>
						</g>
					</g>
					<path class="st0" d="M158,68.6c-0.3-2-2.2-3.3-4.2-3L73.3,93.3L10.8,81.8c-2-0.4-3.9,1-4.2,2.9c-0.4,2,1,3.9,2.9,4.3l63.2,12.5       c0.2,0,0.4,0.1,0.7,0.1c0.2,0,0.4,0,0.6-0.1l81-28.7C157,72.4,158.3,70.5,158,68.6z"></path>
				</g>
			</g>
		</g>
	</g>
	<g>
		<g>
			<path class="st0" d="M179.1,60.9h10.4l10.3,26.9l9.9-25.7l0.5-1.2h10.3v38.4H214V67.4h-0.1l-11.7,31.9h-4.8l-11.7-31.9h-0.1v31.9     h-6.5V60.9z"></path>
			<path class="st0" d="M229.2,60.9h25.5v6.2h-18.6v9.4h17.6v6.2h-17.6v10.4h19.6v6.2h-26.4V60.9z"></path>
			<path class="st0" d="M262.4,60.9h9.1l18.6,28.6h0.1V60.9h6.8v38.4h-8.7l-19-29.5h-0.1v29.5h-6.8V60.9z"></path>
			<path class="st0" d="M313.5,67.1h-11.8v-6.2h30.4v6.2h-11.8v32.2h-6.8V67.1z"></path>
			<path class="st0" d="M355,59.9c12-0.2,20.5,7.8,20.5,20.1c0,12-8.5,20-20.5,20.2c-11.8,0-20.3-8-20.3-20     C334.7,67.9,343.2,59.9,355,59.9z M355.1,94.1c8,0,13.2-6.1,13.2-14.3c0-7.7-5.3-13.7-13.2-13.7c-7.9,0-13.2,6.1-13.2,13.7     C341.9,88,347.2,94.1,355.1,94.1z"></path>
			<path class="st0" d="M382,60.9h13.4c7.4,0,14.3,2.4,14.3,11c0,5.5-3.2,9.6-8.9,10.4l10.2,17h-8.3L393.8,83h-5v16.3H382V60.9z      M394.2,77.2c3.9,0,8.4-0.3,8.4-5.3c0-4.6-4.2-5.1-7.8-5.1h-5.9v10.4H394.2z"></path>
			<path class="st0" d="M435,69.1c-1.5-2.1-4.1-3-6.7-3c-3.1,0-6.3,1.4-6.3,4.9c0,7.7,18.2,3.3,18.2,17c0,8.3-6.5,12.3-14.1,12.3     c-4.8,0-9.4-1.5-12.6-5.2l5.2-5c1.7,2.6,4.6,4,7.6,4c3.1,0,6.7-1.7,6.7-5.3c0-8.4-18.2-3.6-18.2-17.3c0-7.9,7.1-11.6,14.2-11.6     c4,0,8,1.1,11,4L435,69.1z"></path>
		</g>
		<g>
			<path class="st0" d="M184.3,26.1h-8.5v-3.3h20.5v3.3h-8.5v23h-3.6V26.1z"></path>
			<path class="st0" d="M200.1,22.8h3.6v10.9h13.6V22.8h3.6v26.3h-3.6V37h-13.6v12h-3.6V22.8z"></path>
			<path class="st0" d="M224.2,22.8h17v3.3h-13.4V34h12.5v3.3h-12.5v8.4h14.1v3.3h-17.6V22.8z"></path>
			<path class="st0" d="M260.6,22.8h9.3c1.7,0,3.1,0.2,4.2,0.7c1.1,0.5,2,1,2.6,1.7c0.6,0.7,1.1,1.5,1.3,2.4     c0.2,0.9,0.4,1.7,0.4,2.5c0,0.8-0.1,1.7-0.4,2.5c-0.2,0.9-0.7,1.7-1.3,2.4c-0.6,0.7-1.5,1.3-2.6,1.7c-1.1,0.5-2.5,0.7-4.2,0.7     h-5.7v11.6h-3.6V22.8z M264.2,34.4h4.7c0.7,0,1.4-0.1,2.1-0.2c0.7-0.1,1.3-0.3,1.8-0.6c0.5-0.3,1-0.7,1.3-1.3     c0.3-0.6,0.5-1.3,0.5-2.2c0-0.9-0.2-1.6-0.5-2.2c-0.3-0.6-0.7-1-1.3-1.3c-0.5-0.3-1.1-0.5-1.8-0.6c-0.7-0.1-1.4-0.2-2.1-0.2h-4.7     V34.4z"></path>
			<path class="st0" d="M281.8,22.8h9.3c1.7,0,3.1,0.2,4.2,0.7c1.1,0.5,2,1,2.6,1.7c0.6,0.7,1.1,1.5,1.3,2.4     c0.2,0.9,0.4,1.7,0.4,2.5c0,0.8-0.1,1.7-0.4,2.4c-0.3,0.8-0.7,1.5-1.3,2.1c-0.6,0.6-1.2,1.2-2,1.6c-0.8,0.4-1.7,0.7-2.7,0.8     l7.5,12H296l-6.7-11.6h-4v11.6h-3.6V22.8z M285.4,34.4h4.7c0.7,0,1.4-0.1,2.1-0.2c0.7-0.1,1.3-0.3,1.8-0.6c0.5-0.3,1-0.7,1.3-1.3     c0.3-0.6,0.5-1.3,0.5-2.2c0-0.9-0.2-1.6-0.5-2.2c-0.3-0.6-0.7-1-1.3-1.3c-0.5-0.3-1.1-0.5-1.8-0.6c-0.7-0.1-1.4-0.2-2.1-0.2h-4.7     V34.4z"></path>
			<path class="st0" d="M315.7,49.8c-2,0-3.9-0.4-5.5-1.1c-1.7-0.7-3.1-1.7-4.3-2.9c-1.2-1.2-2.1-2.7-2.8-4.4c-0.7-1.7-1-3.5-1-5.5     c0-2,0.3-3.8,1-5.5c0.7-1.7,1.6-3.1,2.8-4.4c1.2-1.2,2.6-2.2,4.3-2.9c1.7-0.7,3.5-1.1,5.5-1.1c2,0,3.9,0.4,5.5,1.1     c1.7,0.7,3.1,1.7,4.3,2.9c1.2,1.2,2.1,2.7,2.8,4.4c0.7,1.7,1,3.5,1,5.5c0,2-0.3,3.8-1,5.5c-0.7,1.7-1.6,3.1-2.8,4.4     c-1.2,1.2-2.6,2.2-4.3,2.9C319.6,49.4,317.7,49.8,315.7,49.8z M315.7,46.4c1.5,0,2.9-0.3,4.1-0.8c1.2-0.6,2.3-1.3,3.1-2.2     c0.9-0.9,1.5-2,2-3.3c0.5-1.3,0.7-2.6,0.7-4.1s-0.2-2.8-0.7-4.1c-0.5-1.3-1.1-2.4-2-3.3c-0.9-0.9-1.9-1.7-3.1-2.2     c-1.2-0.6-2.6-0.8-4.1-0.8c-1.5,0-2.9,0.3-4.1,0.8c-1.2,0.6-2.3,1.3-3.1,2.2c-0.9,0.9-1.5,2.1-2,3.3c-0.5,1.3-0.7,2.6-0.7,4.1     s0.2,2.8,0.7,4.1c0.5,1.3,1.1,2.4,2,3.3c0.9,0.9,1.9,1.7,3.1,2.2C312.9,46.1,314.2,46.4,315.7,46.4z"></path>
			<path class="st0" d="M332.8,22.8h9.3c1.7,0,3.1,0.2,4.2,0.7c1.1,0.5,2,1,2.6,1.7c0.6,0.7,1.1,1.5,1.3,2.4     c0.2,0.9,0.4,1.7,0.4,2.5c0,0.8-0.1,1.7-0.4,2.5c-0.2,0.9-0.7,1.7-1.3,2.4c-0.6,0.7-1.5,1.3-2.6,1.7c-1.1,0.5-2.5,0.7-4.2,0.7     h-5.7v11.6h-3.6V22.8z M336.4,34.4h4.7c0.7,0,1.4-0.1,2.1-0.2c0.7-0.1,1.3-0.3,1.8-0.6c0.5-0.3,1-0.7,1.3-1.3     c0.3-0.6,0.5-1.3,0.5-2.2c0-0.9-0.2-1.6-0.5-2.2c-0.3-0.6-0.7-1-1.3-1.3c-0.5-0.3-1.1-0.5-1.8-0.6c-0.7-0.1-1.4-0.2-2.1-0.2h-4.7     V34.4z"></path>
			<path class="st0" d="M354,22.8h17v3.3h-13.4V34h12.5v3.3h-12.5v8.4h14.1v3.3H354V22.8z"></path>
			<path class="st0" d="M375,22.8h9.3c1.7,0,3.1,0.2,4.2,0.7c1.1,0.5,2,1,2.6,1.7c0.6,0.7,1.1,1.5,1.3,2.4c0.2,0.9,0.4,1.7,0.4,2.5     c0,0.8-0.1,1.7-0.4,2.4c-0.3,0.8-0.7,1.5-1.3,2.1c-0.6,0.6-1.2,1.2-2,1.6c-0.8,0.4-1.7,0.7-2.7,0.8l7.5,12h-4.5l-6.7-11.6h-4     v11.6H375V22.8z M378.6,34.4h4.7c0.7,0,1.4-0.1,2.1-0.2c0.7-0.1,1.3-0.3,1.8-0.6c0.5-0.3,1-0.7,1.3-1.3c0.3-0.6,0.5-1.3,0.5-2.2     c0-0.9-0.2-1.6-0.5-2.2c-0.3-0.6-0.7-1-1.3-1.3c-0.5-0.3-1.1-0.5-1.8-0.6c-0.7-0.1-1.4-0.2-2.1-0.2h-4.7V34.4z"></path>
			<path class="st0" d="M403.4,26.1h-8.5v-3.3h20.5v3.3H407v23h-3.6V26.1z"></path>
			<path class="st0" d="M428,37.9l-10-15.1h4.6l7.2,11.6l7.4-11.6h4.3l-10,15.1v11.2H428V37.9z"></path>
		</g>
	</g>
</g>
</svg>
